# xmcd CD database file
#
# Track frame offsets:
#	150
#	20637
#	40420
#	57280
#	73892
#	106617
#	124972
#	137590
#	163660
#
# Disc length: 2419 seconds
#
# Revision: 0
# Processed by: cddbd v1.4PL0 Copyright (c) Steve Scherf et al.
# Submitted via: CDex 1.51
#
DISCID=7e097109
DTITLE=Mickey Newbury - In A New Age
DYEAR=1988
DGENRE=Country
TTITLE0=All My Trials
TTITLE1=Cortelia Clark
TTITLE2=Wish I Was A Willow Tree
TTITLE3=My Father Was A Sailor
TTITLE4=Frisco Depot
TTITLE5=Poison Red Berries
TTITLE6=Once They Were Lovers
TTITLE7=San Francisco Mabel Joy
TTITLE8=An American Trilogy
EXTD=YEAR: 1988
EXTT0=
EXTT1=
EXTT2=
EXTT3=
EXTT4=
EXTT5=
EXTT6=
EXTT7=
EXTT8=
PLAYORDER=
